<?xml version="1.0" encoding="utf-8"?>
<!-- Generator: Adobe Illustrator 19.2.1, SVG Export Plug-In . SVG Version: 6.00 Build 0)  -->
<svg version="1.1" id="layer" xmlns="http://www.w3.org/2000/svg" xmlns:xlink="http://www.w3.org/1999/xlink" x="0px" y="0px"
	 viewBox="0 0 652 652" style="enable-background:new 0 0 652 652;" xml:space="preserve">
<style type="text/css">
	.st0{filter:url(#Adobe_OpacityMaskFilter);}
	.st1{fill:#FFFFFF;}
	.st2{mask:url(#mask-2_1_);fill:#C4122E;}
	.st3{fill:#FEFEFE;}
</style>
<g id="Page-1">
	<g id="stratco-logo">
		<g id="Group-3" transform="translate(0.000000, -0.377900)">
			<g id="Clip-2">
			</g>
			<defs>
				<filter id="Adobe_OpacityMaskFilter" filterUnits="userSpaceOnUse" x="20.3" y="250.2" width="600" height="143.9">
					<feColorMatrix  type="matrix" values="1 0 0 0 0  0 1 0 0 0  0 0 1 0 0  0 0 0 1 0"/>
				</filter>
			</defs>
			<mask maskUnits="userSpaceOnUse" x="20.3" y="250.2" width="600" height="143.9" id="mask-2_1_">
				<g class="st0">
					<polygon id="path-1_1_" class="st1" points="620.3,394.1 620.3,250.2 20.3,250.2 20.3,394.1 					"/>
				</g>
			</mask>
			<path id="Fill-1" class="st2" d="M54.5,250.2c-18.9,0-34.1,15.3-34.1,34.1v0v109.8h565.9c18.9,0,34.1-15.3,34.1-34.1V250.2H54.5z
				"/>
		</g>
		<polygon id="Fill-4" class="st3" points="393.4,310.3 408.6,310.3 408.6,361.7 437.4,361.7 437.4,310.3 452.5,310.3 452.5,281.9 
			393.4,281.9 		"/>
		<path id="Fill-6" class="st3" d="M289.2,329.8c4.7,12.4,12,31.9,12,31.9h51.3l7.8-42.5l7.8,42.5h28.4l-11.7-60.4
			c-5.4-24.9-41.2-26.1-48.6-1.6l-12.4,41.3l-7.8-21c3.9-4.3,5.8-9.7,5.8-15.6c0-12.5-10.1-22.6-22.6-22.6h-26.1
			c-7.8,0-14,6.2-14,14.4v65.4h28.4v-50.6c0-2.3,1.9-3.9,3.9-3.9c4.3,0,5.4,5.1,2.3,7.4c-3.2,2.4-5.4,5.8-5.4,10.1
			C288.4,326.3,288.5,327.9,289.2,329.8"/>
		<polygon id="Fill-8" class="st3" points="239.8,361.7 239.8,310.3 255,310.3 255,281.9 196.3,281.9 196.3,310.3 211.5,310.3 
			211.5,361.7 		"/>
		<path id="Fill-10" class="st3" d="M192,281.9v28.4c-5.8-0.4-11.7,2.7-14.8,7.8l-10.9,20.6c-9.3,14-24.9,23-41.6,23v-28.4
			c5.8,0.4,11.7-2.7,14.8-7.8l10.9-20.6C159.7,290.8,175.3,281.9,192,281.9"/>
		<path id="Fill-12" class="st3" d="M503.1,360.2c-15.2,5.5-47.8-5.2-47.8-38.6c0-33.5,32.7-43.6,47.8-38.2v33.1h-3.9
			c-4.7-4.7-13.2-1.2-13.2,5.8c0,7,8.6,10.1,13.2,5.8l3.9-0.4V360.2z"/>
		<path id="Fill-14" class="st3" d="M508.9,321.6c0-26.5,19.8-39.7,40-39.7c19.8,0,39.7,13.2,39.7,39.7c0,26.9-19.8,40.1-39.7,40.1
			C528.7,361.7,508.9,348.5,508.9,321.6 M549,310.3c-5.8,0-11.7,3.9-11.7,11.3c0,7.8,5.8,11.7,11.7,11.7c5.4,0,11.3-3.9,11.3-11.7
			C560.2,314.2,554.4,310.3,549,310.3"/>
		<path id="Fill-16" class="st3" d="M87.6,322.2l-2.3,2.3c0.8-17.1,7.4-30,24.5-35.8v31.6H92.7C90.7,320.3,88.8,321,87.6,322.2"/>
		<path id="Fill-18" class="st3" d="M81,321.8l2.3-2.3c-0.8,16.8-7,30-24.5,35.4v-31.2h17.5C77.9,323.8,79.8,323,81,321.8"/>
		<path id="Fill-20" class="st3" d="M116.6,344.6c0,9.5-7.7,17.1-17.1,17.1H52V299c0-9.5,7.7-17.1,17.1-17.1h47.4V344.6z
			 M99.5,358.2c7.5,0,13.6-6.1,13.6-13.6v-59.2H69.1c-7.5,0-13.6,6.1-13.6,13.6v59.2H99.5z"/>
	</g>
</g>
</svg>
